# xmcd CD database file
#
# Track frame offsets:
#	150
#	17867
#	37490
#	58639
#	76241
#	96933
#	115015
#	127540
#	139292
#	155331
#	176222
#	187379
#
# Disc length: 2738 seconds
#
# Revision: 0
# Processed by: cddbd v1.5.2PL0 Copyright (c) Steve Scherf et al.
# Submitted via: CDex 1.51
#
DISCID=a70ab00c
DTITLE=Various Artist - The Revival Tour: Fall 2009 Collection
DYEAR=2009
DGENRE=Country
TTITLE0=Kevin Seconds - Sunday Afternoon Bicycle Polo
TTITLE1=Audra Mae - Cliche
TTITLE2=Digger Barnes - The River
TTITLE3=Haywood Yards - Circus
TTITLE4=Chad Price - Sweet Angel
TTITLE5=Jon Gaunt - Don't Go
TTITLE6=Jon Snodgrass - Murderfield
TTITLE7=Joey Cape - I'm Not Gonna Save You
TTITLE8=Tin Horn Prayer - Better Living
TTITLE9=Tom Cook Band - Everybody Gets Used
TTITLE10=Tim Barry - Bus Driver
TTITLE11=Chuck Ragen, Ben Nichols, Frank Turner, Tim Barry, Todd Beene, Jon Gaunt, Digger Barnes - Revival Road
EXTD=YEAR: 2009
EXTT0=
EXTT1=
EXTT2=
EXTT3=
EXTT4=
EXTT5=
EXTT6=
EXTT7=
EXTT8=
EXTT9=
EXTT10=
EXTT11=
PLAYORDER=
